<?xml version="1.0" encoding="utf-8"?>
<!-- Generator: Adobe Illustrator 22.0.1, SVG Export Plug-In . SVG Version: 6.00 Build 0)  -->
<svg version="1.1" id="Layer_1" xmlns="http://www.w3.org/2000/svg" xmlns:xlink="http://www.w3.org/1999/xlink" x="0px" y="0px"
	 viewBox="0 0 789.4 119.3" style="enable-background:new 0 0 789.4 119.3;" xml:space="preserve">
<style type="text/css">
	.st0{fill:#01FFA9;}
	.st1{fill:#A815D7;stroke:#A815D7;stroke-width:1.3163;}
	.st2{fill:#7E07DB;}
	.st3{fill:#A815D7;}
	.st4{fill:#7E07DB;stroke:#7E07DB;stroke-width:1.3163;}
	.st5{fill:#01FFA9;stroke:#01FFA9;stroke-width:1.3163;}
	.st6{fill:#FFFFFF;stroke:#000000;stroke-width:3;stroke-miterlimit:10;}
</style>
<g id="Vrstva_x0020_1">
	<g id="_830882048">
		<path class="st0" d="M52.7,114.8C33.9,106.6,20.6,87.5,20.6,65c0-1.2,0-2.7,0.2-4V17.1c0-0.2,0-0.5,0-0.7s0-0.5,0-0.7l0,0l0,0
			c0.2-7.2,5.8-13.1,13-13.6c0,0,12.5,9.9,12.1,25c-0.7,15.4-7.7,11.4-6.5,18.3c1.2,6.7,9.7,4.5,12.1-0.5c3.6-6.9,8.7-3.5,8.7-0.5
			l0,0C53.7,48.8,49.3,56.3,49.3,65c0,5.9,1.9,11.2,5.1,15.4c0,0.2-6,5.5-3.6,8.9c2.7,3.5,2.7,2.5,4.8,4c1.9,1.2,4.1,3.2,1.4,6.9
			C54.4,103.9,51.7,104.9,52.7,114.8L52.7,114.8z"/>
		<path class="st1" d="M20.6,67.4c0-0.2,0-1.5,0-2.5c0-0.7,0-2.7,0.2-4V35.2c0.7,0.7,1.4,0.2,1.7-1C24,27,28.1,19.1,34.1,22.1
			c4.1,2,2.4,8.2,1,10.2c-3.4,5.5-7,13.9-8.9,20.1c-1,4.5-0.2,6.2-0.7,10.7C25.2,64,23.8,67.4,20.6,67.4z"/>
		<path class="st2" d="M97.1,65c0-5.7-5.3-17.8-13.3-21.8c3.1-13.9-0.2-29-15.7-32c1.7,0,3.4-0.2,5.1-0.2c11.3,0,22,4.2,30.6,10.9
			c-2.7,3.2-3.6,8.4-1.2,12.9c3.4,6.4,12.1,9.2,17.4,14.1c2.7,2.5,4.3,5.2,2.9,9.4c-0.7,2-2.7,1.5-3.4,0c-1.4-2.7-3.1-5.9-6.3-3.5
			c-3.9,3.7,1.9,9.2,4.1,11.9c4.1,4.7,5.5,17.6,0.5,22.1c-1,0.7-5.8,5-6,5.2c1.4,0.2,2.7-0.5,4.1-1c1.2-0.5,2.7-1.2,4.1-2
			c-6.5,12.9-18.1,21.8-32.1,26c0,0,11.6-9.7,10.4-17.6c0,0-1.7-4.5-5.5-2.2c-4.1,2.2-4.8,6.9-7.7,4.5c-1.4-1.2-1.9-2.7-1.7-4.7
			c0-1.7,1-3.5,2.4-5.5c1.4-1.7,6.8-5.2,9.9-8.7c3.6-3.5,5.1-6.9,0.7-11.4l0,0C96.4,71.6,97.1,67.4,97.1,65z"/>
		<path class="st3" d="M73.2,119c-6.3,0-14.2-1.5-20.5-4.2c-1-9.9,1.7-10.9,4.3-14.6c2.7-3.7,0.5-5.7-1.4-6.9
			c-2.2-1.5-2.2-0.5-4.8-4c-1.9-2.7,1.9-8.2,3.6-8.9c4.6,5.7,9.4,9.2,18.8,9.2c9.2,0,20.3-7.4,23.2-18.1c9.2,7.9-7.2,15.9-10.6,20.1
			c-2.9,3.7-3.6,7.7-0.7,10.2c2.7,2.5,3.6-2.2,7.7-4.5c3.9-2.5,5.5,2.2,5.5,2.2c1.2,7.9-10.4,17.6-10.4,17.6
			C83.1,118.5,79.3,119,73.2,119z"/>
		<path class="st3" d="M33.9,2c0.2,0,0.5,0,0.7,0c7.7,0,14,6.4,14,14.4c0,0.2,0,0.5,0,1c6-3.2,12.5-5.5,19.5-6.2
			c22.9,4.2,15.7,32,15.7,32l0,0c-3.1-1.7-6.8-2.7-10.6-2.7c-4.8,0-9.2,1.5-13,4l0,0c0-3-5.1-6.4-8.7,0.5c-2.4,5-10.9,7.2-12.1,0.5
			c-1.2-6.9,5.8-3,6.5-18.3C46.4,11.9,33.9,2,33.9,2z"/>
		<path class="st0" d="M128.7,63.2c-0.5,3.5,3.1,4.2,4.3,2c1.9-3,0.2-4,2.7-6.7c3.1-3.7,8.4-0.7,7.7,4.5
			c-1.9,12.6-16.6,25.8-27.5,30c-1.4,0.5-2.7,1.2-4.1,1c0.2-0.2,5.1-4.5,6-5.2c5.1-4.5,3.6-17.4-0.5-22.1c-2.2-2.7-8-8.2-4.1-11.9
			c3.1-2.5,4.8,0.7,6.3,3.5c0.7,1.5,2.7,2,3.4,0c1.4-4.2-0.2-6.9-2.9-9.4c-5.3-5-14-7.7-17.4-14.1c-5.3-9.7,5.1-21.1,13.5-14.6
			C127.8,29.3,131.1,48.6,128.7,63.2z"/>
		<path class="st1" d="M113.8,52.1c-3.1-1.5-3.6-1.2-9.2-1.2c-2.4,0-4.6-2.5-3.6-4.7C102.9,41.7,111.3,44.1,113.8,52.1z"/>
		<path class="st4" d="M11.2,32.7c1.9,0.5,6.3,4.2,5.3,6.7c-1.7-0.5-0.7-1-5.8-3.2C10,36.2,9.5,36,9,35.7C7.4,35,7.8,31.5,11.2,32.7
			z"/>
		<path class="st5" d="M145.1,51.6c-7.2,2.7-8,2.7-11.3,6.4c1.4-4,10.9-19.1,15.9-12.4C150.7,49.1,147.3,50.3,145.1,51.6z"/>
		<path class="st1" d="M96.9,113.3c0,0,10.1-4.2,16.9-15.1c0,0,1.7-2.7,3.1-2.5c1.7,0.5,4.1,2.2,3.6,5.7
			C118.8,112.5,105.8,114.3,96.9,113.3z"/>
		<path class="st5" d="M18.9,62.7c-3.6-4-4.6-4-12.5-7.2c-3.9-1.5-5.3-6.4-2.7-9.2C9,40.9,19.9,49.8,18.9,62.7z"/>
	</g>
	<path id="XMLID_1_" class="st6" d="M173,95.3c-3.4,0-5.9-1-7.9-3.4c-2-2-3-4.9-3-8.9V38.2c0-2,0.5-3.9,1.5-5.4c1-2,2.5-3.4,3.9-4.4
		c1.5-1,3.4-1.5,5.4-1.5h15.7c1.5,0,2.5,0,3.9,0.5c3,0.5,5.9,1,8.4,2.5c2.5,1,4.4,2.5,6.4,4.4c1.5,1.5,3,3.4,3.9,5.9
		c1,2.5,1.5,4.4,1.5,7.4c0,0.5,0,1.5,0,2c-0.5,3.4-1.5,6.9-3.4,9.4l0,0l1.5,1l1,1l0.5,0.5c1.5,1,2.5,2.5,3.4,3.4c1,1.5,1.5,3,2,4.9
		c0.5,1.5,1,3,1,4.9s-0.5,3.9-1,5.9c-1,2.5-2,4.4-3,5.9c-1.5,1.5-2.5,2.5-3.4,3.4c-2,2-4.4,3.4-6.9,3.9c-2.5,1-4.9,1.5-8.4,1.5H173z
		 M183.8,52h4.9c1,0,2-0.5,2.5-1.5c0.5-0.5,1-1,1-2c0-0.5-0.5-1.5-1-2c-0.5-0.5-1.5-1-2.5-1h-4.9V52z M183.8,76.1h10.3
		c0.5,0,1.5,0,2-0.5s1-1.5,1-2.5s-0.5-1.5-1-2c-0.5-1-1.5-1.5-2-1.5h-10.3V76.1z M233,95.8c-3,0-5.4-1-7.4-3s-3-4.4-3-7.4V54
		c0-3,1-5.4,3-7.4c2-2,4.4-3,7.4-3l9.8,6.4v-0.5l0.5-0.5l1-1.5c2.5-2.5,4.9-3.9,7.9-3.9c1,0,2,0,2.5,0.5c2,0.5,3.4,1,4.9,2.5
		c1.5,1.5,2,3,2.5,4.4c0,1,0,2,0,2.5c0,2.5-0.5,3.9-2,5.9c-2,1.5-3.9,3-7.4,3.9c-0.5,0-1,0-1,0.5c-0.5,0-0.5,0-1,0
		c-1.5,1-3,1.5-3.9,2c-1,1-1.5,1.5-2,2.5c-0.5,0.5-1,1.5-1.5,3c0,1,0,2.5,0,4.4V85c0,2-0.5,3.9-1.5,5.4s-2,3-3.9,3.9
		C236.4,95.3,235,95.8,233,95.8z M281.2,43.6c2-0.5,3.4-0.5,4.4-0.5c4.4,0,8.4,1.5,11.8,4.4v0.5l8.4-4.9c1-0.5,1.5-0.5,3-0.5
		s2.5,0.5,3.4,1.5c2.5,2.5,3.9,5.9,3.9,9.4v32c0,3-1,5.4-3,7.4s-4.4,3-7.4,3l-8.4-4.9v0.5c-3,3-6.9,4.4-11.8,4.4
		c-1.5,0-3.4,0-5.4-0.5c-2.5-0.5-5.4-1.5-8.4-3.4c-2.5-2-4.9-4.4-6.9-7.4c-1-2-2.5-4.4-3-6.9c-0.5-2.5-1-5.4-1-8.9
		c0-4.4,1.5-8.4,3-11.8c2-3.4,4.4-6.4,7.4-8.9C274.3,45.6,277.3,44.1,281.2,43.6z M281.7,70.2c0,2,0.5,3.9,2,5.4
		c1.5,2,3,2.5,4.9,2.5c1.5,0,2.5,0,3.9-1c1-0.5,2-1.5,2.5-3c0.5-0.5,1-1.5,1-2.5c0-0.5,0-1.5,0-3c-0.5-3-2-5.4-4.4-6.4
		c-1-0.5-2-0.5-3-0.5c-1.5,0-3,0.5-4.4,1.5c-1,1.5-2,3-2,4.9c0,0.5,0,0.5-0.5,1C281.7,69.2,281.7,69.7,281.7,70.2z M324.5,92.8
		c-2-2-3-4.4-3-7.4V54c0-3,1-5.4,3-7.4c2-2,4.4-3,7.4-3l8.4,4.9v-0.5c0,0,0.5-0.5,1.5-1c3.9-2.5,8.4-3.9,12.3-3.9
		c1.5,0,3,0.5,4.9,0.5c3,1,5.4,2,7.9,3.4c2.5,2,3.9,3.9,5.4,6.4c1,2.5,1.5,4.9,1.5,7.9v24.1c0,2,0,3.9-1,5.4s-2.5,3-3.9,3.4
		c-1.5,1-3.4,1.5-5.4,1.5c-3,0-5.4-1-7.4-3s-3-4.4-3-7.4V65.8c0-1.5-0.5-2.5-1.5-3.4c-1-1.5-2.5-2-3.9-2s-2.5,0.5-3.4,1.5
		c-1.5,1.5-2,2.5-2,3.9v19.7c0,3-1,5.4-3,7.4s-4.4,3-7.4,3S326.5,94.8,324.5,92.8z M411.6,45.1c0.5,0,1,0.5,1.5,0.5V31.3
		c0-3,1-5.4,3-7.4s4.4-3,7.4-3c2,0,3.4,0.5,5.4,1.5c1.5,1,2.5,2,3.4,3.4c1,2,1.5,3.4,1.5,5.4v54.1c0,2-0.5,3.9-1.5,5.4
		c-0.5,1.5-2,2.5-3.4,3.4s-3.4,1.5-5.4,1.5l-8.4-5.4v0.5c-3,3.4-6.9,4.9-11.8,4.9c-1.5,0-3,0-4.4-0.5c-4.9-1-9.4-3-12.8-6.9
		c-3.4-3.9-5.9-8.4-6.9-13.8c-0.5-2-0.5-3.4-0.5-5.4c0-2,0-3.9,0.5-5.9c1-3.4,2.5-6.9,4.4-9.8s4.4-5.4,7.4-6.9c3.9-2,7.4-3,11.3-3
		C405.2,43.6,408.2,44.1,411.6,45.1z M399.3,69.7c0,2.5,0.5,4.4,2,5.9s3.4,2.5,5.4,2.5c1.5,0,3.4-1,4.4-2c1-1.5,2-3,2.5-5.4v-3
		c-1-3.4-2.5-5.9-5.4-6.4c-1,0-1.5,0-2,0c-1.5,0-3,0.5-4.4,1.5c-1,1.5-2,3-2.5,4.9C399.3,68.2,399.3,68.7,399.3,69.7z M439.2,84
		V38.2c0-2,0.5-3.9,1.5-5.9c1-1.5,2.5-3,3.9-3.9c2-1,3.4-1.5,5.4-1.5h15.3c4.9,0,9.8,0.5,13.8,2c4.4,1,8.4,2.5,11.3,4.9
		c3.4,2,5.9,4.9,7.9,7.9c2,3.4,3.9,6.9,4.9,11.3c0.5,2.5,1,5.4,1,8.4c-0.5,6.4-2,12.3-4.9,17.2c-3,5.4-7.4,9.4-12.8,12.3
		s-11.3,4.4-18.2,4.4H450c-3,0-5.4-1-7.4-3.4C440.2,89.9,439.2,86.9,439.2,84z M460.8,76.1h5.4c3,0,5.9-0.5,8.4-1.5
		c2.5-1.5,4.4-3.4,5.9-5.4c1.5-2.5,2-4.9,2-7.9c0-1,0-2.5-0.5-3.4c-0.5-3.9-2.5-6.4-5.4-8.9c-3-2-6.9-3-11.3-3h-4.4V76.1z
		 M509.6,87.9c-1-1-1-2.5-1-3.9V38.2c0-2.5,0.5-3.9,1.5-5.9c1-1.5,2-3,3.9-3.9c1.5-1,3.4-1.5,5.4-1.5h26.1c1.5,0,3,0.5,4.4,1.5
		c1,0.5,2.5,2,3,3.4c1,1.5,1.5,3,1.5,4.4c0,2-0.5,3.4-1.5,4.9c-0.5,1.5-2,3-3,3.4c-1.5,1-3,1.5-4.9,1.5h-14.8V52h12.3
		c1,0,2.5,0,3.9,0.5c1,0.5,2.5,1.5,3,2.5c1,0.5,2,1.5,2.5,2.5c0.5,1.5,0.5,2.5,0.5,3.4c0,3-1,4.9-3,6.9c-2,1.5-4.4,2.5-6.9,2.5
		h-12.3v5.9h14.3c2.5,0,4.9,1,6.9,3c1,1,2,2,2.5,3c0.5,1.5,0.5,2.5,0.5,3.9c0,2.5-1,4.4-2.5,6.4c-2.5,2-4.4,3-7.4,3h-25.1
		c-2,0-3.9-1-5.9-2C511.5,91.9,510.6,90.4,509.6,87.9z M563.2,91.9c-2.5-1.5-3.9-3-4.9-4.4c-1-1-1.5-3-1.5-5.4c0-2,0.5-3.4,1.5-4.9
		c2-3,3.9-3.9,6.9-3.9c1,0,2,0,3.4,0l3.9,1.5l3.9,1l2.5,0.5h1c1,0.5,1.5,0.5,1.5,0.5c1.5,0,2.5,0.5,3.4,0.5s2-0.5,2.5-0.5
		c1.5-0.5,2-1,2.5-1c0.5-0.5,1-1,1-1.5c0-1-0.5-1.5-1-2c0,0-0.5,0-1,0l-1.5-1h-1.5l-4.9-1.5h-1l-5.9-2c-3.4-1-6.4-2-8.9-3.4
		c-2.5-2-4.4-3.9-5.9-6.4c-1.5-2.5-2-5.4-2-8.4c0-2.5,0.5-4.9,1.5-7.4c1-2.5,2-4.9,3.9-6.9c2-2.5,4.9-3.9,7.9-5.4
		c3.4-2,6.9-3,10.8-3.4c1.5,0,3.4,0,4.9,0c3.4,0,6.9,0.5,9.8,1.5c3.9,1,6.4,2,7.9,3.4c2,1.5,3,3,3.9,4.9c0,1.5,0,2.5,0,3.4
		c0,2-0.5,3.4-1.5,4.9s-2,2.5-3,3s-2.5,1-4.4,1c-1.5,0-3.4-0.5-5.4-1h-1l-2.5-1l-1.5-0.5l-2.5-0.5l-1.5-0.5h-1c0,0,0,0-0.5,0
		c0,0,0,0-0.5,0c-2,0-3,0-3.4,0.5s-1,1-1,2c0,0,0,0.5,0.5,1c0.5,0,1,0.5,1.5,0.5l2,0.5h0.5l2,0.5l3,1l6.4,1.5c3,1,5.9,2,7.9,3.4
		c2,0.5,3.4,2,4.4,3c1.5,1,2.5,2.5,3.4,3.9s1.5,3,2,4.9c0.5,1.5,1,3,1,4.9c0,4.9-2,9.4-5.4,13.8c-5.4,6.4-13.3,9.4-24.1,9.4
		c-0.5,0-2,0-3.9,0C572.1,95.3,566.7,94.3,563.2,91.9z M619.8,92.8c-2.5-2-3.4-4.9-3.4-7.9V37.2c0-3,1-5.9,3-7.9c2.5-2,4.9-3,7.9-3
		c2,0,3.9,0.5,5.4,1.5c1.5,1,3,2,3.9,3.9c1,1.5,1.5,3.4,1.5,5.4V85c0,1.5,0,3-1,4.4c-0.5,1.5-1,2.5-2,3.4c-2.5,2-4.9,3-7.9,3
		S621.8,94.8,619.8,92.8z M684.8,76.6c3-0.5,5.4-2,6.9-3.9h-5.9c-2.5,0-4.9-1-6.4-3c-2-1.5-3-3.9-3-6.4c0-2,0.5-3.4,1.5-4.9
		c0.5-1.5,2-2.5,3.4-3.4c1-1,3-1.5,4.4-1.5H704c6.9,0,10.3,3.9,10.3,11.3c0,2-0.5,4.4-1,6.4c-0.5,3-1.5,5.9-3,8.9
		c-2,3.4-4.4,6.4-7.4,8.9c-3,2-5.9,3.9-9.8,5.4c-3.9,1-7.9,1.5-12.3,1.5c-2.5,0-5.4,0-8.4-0.5c-4.4-1-8.4-2-11.8-3.9
		c-3.4-1.5-6.4-3.9-8.9-6.9c-3-3-4.9-6.4-6.4-9.8c-2-4.4-3-8.9-3-13.3c0-5.9,1.5-11.3,4.9-16.7c3-4.9,6.9-9.4,12.3-12.8
		c5.9-3.9,12.8-5.4,20.2-5.4c1,0,2.5,0,4.4,0c3.4,0.5,6.4,1,9.4,2c3,1,5.9,2,8.4,3.9c5.4,3.4,8.4,6.9,8.4,11.3c0,2-1,4.4-3.4,6.4
		c-1.5,1-3.4,2-5.4,2s-3.4-0.5-5.4-1l0,0l-3.9-2.5c-1-0.5-1.5-0.5-2-1c-3.9-1.5-7.4-2.5-10.8-2.5c-2.5,0-4.9,0.5-6.9,1.5
		c-2.5,1-3.9,2.5-5.4,4.9c-1.5,2-2.5,4.4-3,6.9c0,1,0,1.5,0,2.5c0,1,0,2,0,3c0.5,3,1.5,5.4,3,7.4s3.4,3.4,5.4,4.4s4.4,1.5,7.4,1.5
		C681.3,77.1,683.3,77.1,684.8,76.6z M722.2,92.3c-2.5-2.5-3.4-5.4-3.4-8.4V37.2c0-2.5,0.5-4.4,2-6.4c1-1.5,2.5-3,4.9-3.9
		c1-0.5,2.5-1,3.9-1c3,0,6.4,2,9.4,5.4l23.6,28.1V37.2c0-3,1-5.4,3.4-7.9c2-2,4.4-3,7.4-3c1.5,0,3,0,4.4,0.5c1,1,2.5,1.5,3,2.5
		c1,1,2,2.5,2.5,3.4c0.5,1.5,1,3,1,4.4V85c0,0.5,0,1.5,0,2.5c-0.5,1.5-1,3-2.5,4.4c-1,1-2,2.5-3.4,3c-1.5,1-3.4,1-4.9,1
		c-2,0-3.9-0.5-5.9-1.5c-1-1-2-1.5-2.5-2.5l-24.6-30V85c0,3-1,5.9-3.4,7.9c-2,2-4.4,3-7.4,3C726.6,95.8,724.1,94.8,722.2,92.3z"/>
</g>
</svg>
